<svg width="42" height="50" xmlns="http://www.w3.org/2000/svg">
	<g fill="none" fill-rule="evenodd">
		<path d="M38.133 41.165H18.748L9.81 49.436c-.43.447-1.192.147-1.192-.469v-7.802H3.45C1.553 41.165 0 39.634 0 37.763V3.403C0 1.53 1.553 0 3.451 0h34.682c1.898 0 3.45 1.531 3.45 3.403v34.36c0 1.871-1.552 3.402-3.45 3.402z" fill="#CE2359"/>
		<path d="M19.929 33c-2.034 0-3.414-1.146-3.414-3.08 0-1.933 1.38-3.078 3.414-3.078 2.034 0 3.413 1.145 3.413 3.078 0 1.934-1.38 3.08-3.413 3.08m6.21-13.534c-1.272 1.11-2.76 1.933-3.304 2.543-.328.393-.4.68-.4 1.324l-.036 1.683h-4.94l-.036-2.327c-.036-2.22.763-3.33 2.288-4.404l2.215-1.575c.8-.573 1.598-1.217 1.598-2.22 0-1.504-1.307-2.327-3.487-2.327-2.214 0-3.994 1.074-5.12 2.148l-1.67-4.01c.762-.823 3.087-2.757 7.772-2.757 4.648 0 7.77 2.9 7.77 6.337 0 2.972-1.234 4.297-2.65 5.585" fill="#FFF"/>
	</g>
</svg>
